<mxfile host="65bd71144e">
    <diagram id="HlNtyM4XRtg-YH40qH6-" name="Page-1">
        <mxGraphModel dx="1817" dy="1246" grid="1" gridSize="10" guides="1" tooltips="1" connect="1" arrows="1" fold="1" page="0" pageScale="1" pageWidth="827" pageHeight="1169" math="0" shadow="0">
            <root>
                <mxCell id="0"/>
                <mxCell id="1" parent="0"/>
                <mxCell id="125" style="edgeStyle=none;html=1;fontFamily=Helvetica;startArrow=none;startFill=0;endArrow=none;endFill=0;endSize=8;strokeWidth=1;entryX=0.5;entryY=0;entryDx=0;entryDy=0;" edge="1" parent="1" target="63">
                    <mxGeometry relative="1" as="geometry">
                        <mxPoint x="-34" y="500" as="targetPoint"/>
                        <mxPoint x="-214" y="516" as="sourcePoint"/>
                        <Array as="points">
                            <mxPoint x="-214" y="500"/>
                            <mxPoint x="-30" y="500"/>
                        </Array>
                    </mxGeometry>
                </mxCell>
                <mxCell id="42" value="User" style="swimlane;fontStyle=0;childLayout=stackLayout;horizontal=1;startSize=26;fillColor=default;horizontalStack=0;resizeParent=1;resizeParentMax=0;resizeLast=0;collapsible=1;marginBottom=0;labelBackgroundColor=none;labelBorderColor=none;fontFamily=Helvetica;" vertex="1" parent="1">
                    <mxGeometry x="-280" y="516" width="140" height="52" as="geometry"/>
                </mxCell>
                <mxCell id="47" value="" style="text;strokeColor=none;fillColor=default;align=left;verticalAlign=top;spacingLeft=4;spacingRight=4;overflow=hidden;rotatable=0;points=[[0,0.5],[1,0.5]];portConstraint=eastwest;labelBackgroundColor=none;labelBorderColor=none;fontFamily=Helvetica;" vertex="1" parent="42">
                    <mxGeometry y="26" width="140" height="26" as="geometry"/>
                </mxCell>
                <mxCell id="168" value="" style="edgeStyle=none;html=1;fontFamily=Helvetica;startArrow=open;startFill=0;endArrow=none;endFill=0;endSize=6;targetPerimeterSpacing=0;strokeWidth=1;" edge="1" parent="1" source="63" target="166">
                    <mxGeometry relative="1" as="geometry"/>
                </mxCell>
                <mxCell id="63" value="Driver" style="swimlane;fontStyle=0;childLayout=stackLayout;horizontal=1;startSize=26;fillColor=default;horizontalStack=0;resizeParent=1;resizeParentMax=0;resizeLast=0;collapsible=1;marginBottom=0;labelBackgroundColor=none;labelBorderColor=none;fontFamily=Helvetica;" vertex="1" parent="1">
                    <mxGeometry x="-100" y="516" width="140" height="52" as="geometry"/>
                </mxCell>
                <mxCell id="64" value="" style="text;strokeColor=none;fillColor=default;align=left;verticalAlign=top;spacingLeft=4;spacingRight=4;overflow=hidden;rotatable=0;points=[[0,0.5],[1,0.5]];portConstraint=eastwest;labelBackgroundColor=none;labelBorderColor=none;fontFamily=Helvetica;" vertex="1" parent="63">
                    <mxGeometry y="26" width="140" height="26" as="geometry"/>
                </mxCell>
                <mxCell id="130" style="edgeStyle=none;html=1;entryX=0.5;entryY=1;entryDx=0;entryDy=0;fontFamily=Helvetica;startArrow=none;startFill=0;endArrow=block;endFill=0;endSize=6;strokeWidth=1;targetPerimeterSpacing=0;" edge="1" parent="1" source="103" target="127">
                    <mxGeometry relative="1" as="geometry"/>
                </mxCell>
                <mxCell id="103" value="Card" style="swimlane;fontStyle=0;childLayout=stackLayout;horizontal=1;startSize=26;fillColor=default;horizontalStack=0;resizeParent=1;resizeParentMax=0;resizeLast=0;collapsible=1;marginBottom=0;labelBackgroundColor=none;labelBorderColor=none;fontFamily=Helvetica;" vertex="1" parent="1">
                    <mxGeometry x="-470" y="898" width="140" height="104" as="geometry"/>
                </mxCell>
                <mxCell id="107" value="date" style="text;strokeColor=none;fillColor=default;align=left;verticalAlign=top;spacingLeft=4;spacingRight=4;overflow=hidden;rotatable=0;points=[[0,0.5],[1,0.5]];portConstraint=eastwest;labelBackgroundColor=none;labelBorderColor=none;fontFamily=Helvetica;" vertex="1" parent="103">
                    <mxGeometry y="26" width="140" height="26" as="geometry"/>
                </mxCell>
                <mxCell id="105" value="number" style="text;strokeColor=none;fillColor=default;align=left;verticalAlign=top;spacingLeft=4;spacingRight=4;overflow=hidden;rotatable=0;points=[[0,0.5],[1,0.5]];portConstraint=eastwest;labelBackgroundColor=none;labelBorderColor=none;fontFamily=Helvetica;" vertex="1" parent="103">
                    <mxGeometry y="52" width="140" height="26" as="geometry"/>
                </mxCell>
                <mxCell id="106" value="ccv" style="text;strokeColor=none;fillColor=default;align=left;verticalAlign=top;spacingLeft=4;spacingRight=4;overflow=hidden;rotatable=0;points=[[0,0.5],[1,0.5]];portConstraint=eastwest;labelBackgroundColor=none;labelBorderColor=none;fontFamily=Helvetica;" vertex="1" parent="103">
                    <mxGeometry y="78" width="140" height="26" as="geometry"/>
                </mxCell>
                <mxCell id="131" style="edgeStyle=none;html=1;fontFamily=Helvetica;startArrow=none;startFill=0;endArrow=none;endFill=0;endSize=8;strokeWidth=1;" edge="1" parent="1" source="108">
                    <mxGeometry relative="1" as="geometry">
                        <mxPoint x="-400" y="880" as="targetPoint"/>
                        <Array as="points">
                            <mxPoint x="-560" y="880"/>
                        </Array>
                    </mxGeometry>
                </mxCell>
                <mxCell id="108" value="PayPal" style="swimlane;fontStyle=0;childLayout=stackLayout;horizontal=1;startSize=26;fillColor=default;horizontalStack=0;resizeParent=1;resizeParentMax=0;resizeLast=0;collapsible=1;marginBottom=0;labelBackgroundColor=none;labelBorderColor=none;fontFamily=Helvetica;" vertex="1" parent="1">
                    <mxGeometry x="-630" y="898" width="140" height="52" as="geometry"/>
                </mxCell>
                <mxCell id="110" value="email" style="text;strokeColor=none;fillColor=default;align=left;verticalAlign=top;spacingLeft=4;spacingRight=4;overflow=hidden;rotatable=0;points=[[0,0.5],[1,0.5]];portConstraint=eastwest;labelBackgroundColor=none;labelBorderColor=none;fontFamily=Helvetica;" vertex="1" parent="108">
                    <mxGeometry y="26" width="140" height="26" as="geometry"/>
                </mxCell>
                <mxCell id="132" style="edgeStyle=none;html=1;fontFamily=Helvetica;startArrow=none;startFill=0;endArrow=none;endFill=0;endSize=8;strokeWidth=1;" edge="1" parent="1" source="112">
                    <mxGeometry relative="1" as="geometry">
                        <mxPoint x="-400" y="880" as="targetPoint"/>
                        <Array as="points">
                            <mxPoint x="-240" y="880"/>
                        </Array>
                    </mxGeometry>
                </mxCell>
                <mxCell id="112" value="Cash" style="swimlane;fontStyle=0;childLayout=stackLayout;horizontal=1;startSize=26;fillColor=default;horizontalStack=0;resizeParent=1;resizeParentMax=0;resizeLast=0;collapsible=1;marginBottom=0;labelBackgroundColor=none;labelBorderColor=none;fontFamily=Helvetica;" vertex="1" parent="1">
                    <mxGeometry x="-310" y="898" width="140" height="52" as="geometry"/>
                </mxCell>
                <mxCell id="113" value="" style="text;strokeColor=none;fillColor=default;align=left;verticalAlign=top;spacingLeft=4;spacingRight=4;overflow=hidden;rotatable=0;points=[[0,0.5],[1,0.5]];portConstraint=eastwest;labelBackgroundColor=none;labelBorderColor=none;fontFamily=Helvetica;" vertex="1" parent="112">
                    <mxGeometry y="26" width="140" height="26" as="geometry"/>
                </mxCell>
                <mxCell id="126" style="edgeStyle=none;html=1;fontFamily=Helvetica;startArrow=block;startFill=0;endArrow=none;endFill=0;endSize=8;strokeWidth=1;" edge="1" parent="1" source="115">
                    <mxGeometry relative="1" as="geometry">
                        <mxPoint x="-120" y="500" as="targetPoint"/>
                    </mxGeometry>
                </mxCell>
                <mxCell id="115" value="Account" style="swimlane;fontStyle=0;childLayout=stackLayout;horizontal=1;startSize=26;fillColor=default;horizontalStack=0;resizeParent=1;resizeParentMax=0;resizeLast=0;collapsible=1;marginBottom=0;labelBackgroundColor=none;labelBorderColor=none;fontFamily=Helvetica;" vertex="1" parent="1">
                    <mxGeometry x="-190" y="320" width="140" height="156" as="geometry"/>
                </mxCell>
                <mxCell id="116" value="id" style="text;strokeColor=none;fillColor=default;align=left;verticalAlign=top;spacingLeft=4;spacingRight=4;overflow=hidden;rotatable=0;points=[[0,0.5],[1,0.5]];portConstraint=eastwest;labelBackgroundColor=none;labelBorderColor=none;fontFamily=Helvetica;" vertex="1" parent="115">
                    <mxGeometry y="26" width="140" height="26" as="geometry"/>
                </mxCell>
                <mxCell id="117" value="name: string" style="text;strokeColor=none;fillColor=default;align=left;verticalAlign=top;spacingLeft=4;spacingRight=4;overflow=hidden;rotatable=0;points=[[0,0.5],[1,0.5]];portConstraint=eastwest;labelBackgroundColor=none;labelBorderColor=none;fontFamily=Helvetica;" vertex="1" parent="115">
                    <mxGeometry y="52" width="140" height="26" as="geometry"/>
                </mxCell>
                <mxCell id="118" value="document" style="text;strokeColor=none;fillColor=default;align=left;verticalAlign=top;spacingLeft=4;spacingRight=4;overflow=hidden;rotatable=0;points=[[0,0.5],[1,0.5]];portConstraint=eastwest;labelBackgroundColor=none;labelBorderColor=none;fontFamily=Helvetica;" vertex="1" parent="115">
                    <mxGeometry y="78" width="140" height="26" as="geometry"/>
                </mxCell>
                <mxCell id="119" value="email" style="text;strokeColor=none;fillColor=default;align=left;verticalAlign=top;spacingLeft=4;spacingRight=4;overflow=hidden;rotatable=0;points=[[0,0.5],[1,0.5]];portConstraint=eastwest;labelBackgroundColor=none;labelBorderColor=none;fontFamily=Helvetica;" vertex="1" parent="115">
                    <mxGeometry y="104" width="140" height="26" as="geometry"/>
                </mxCell>
                <mxCell id="120" value="password" style="text;strokeColor=none;fillColor=default;align=left;verticalAlign=top;spacingLeft=4;spacingRight=4;overflow=hidden;rotatable=0;points=[[0,0.5],[1,0.5]];portConstraint=eastwest;labelBackgroundColor=none;labelBorderColor=none;fontFamily=Helvetica;" vertex="1" parent="115">
                    <mxGeometry y="130" width="140" height="26" as="geometry"/>
                </mxCell>
                <mxCell id="127" value="Payments" style="swimlane;fontStyle=0;childLayout=stackLayout;horizontal=1;startSize=26;fillColor=default;horizontalStack=0;resizeParent=1;resizeParentMax=0;resizeLast=0;collapsible=1;marginBottom=0;labelBackgroundColor=none;labelBorderColor=none;fontFamily=Helvetica;" vertex="1" parent="1">
                    <mxGeometry x="-470" y="780" width="140" height="78" as="geometry"/>
                </mxCell>
                <mxCell id="128" value="id" style="text;strokeColor=none;fillColor=default;align=left;verticalAlign=top;spacingLeft=4;spacingRight=4;overflow=hidden;rotatable=0;points=[[0,0.5],[1,0.5]];portConstraint=eastwest;labelBackgroundColor=none;labelBorderColor=none;fontFamily=Helvetica;" vertex="1" parent="127">
                    <mxGeometry y="26" width="140" height="26" as="geometry"/>
                </mxCell>
                <mxCell id="183" value="cost" style="text;strokeColor=none;fillColor=default;align=left;verticalAlign=top;spacingLeft=4;spacingRight=4;overflow=hidden;rotatable=0;points=[[0,0.5],[1,0.5]];portConstraint=eastwest;labelBackgroundColor=none;labelBorderColor=none;fontFamily=Helvetica;" vertex="1" parent="127">
                    <mxGeometry y="52" width="140" height="26" as="geometry"/>
                </mxCell>
                <mxCell id="174" value="" style="edgeStyle=none;html=1;fontFamily=Helvetica;startArrow=diamond;startFill=1;endArrow=none;endFill=0;endSize=6;targetPerimeterSpacing=0;strokeWidth=1;" edge="1" parent="1" source="166" target="172">
                    <mxGeometry relative="1" as="geometry"/>
                </mxCell>
                <mxCell id="178" style="edgeStyle=none;html=1;entryX=0.5;entryY=0;entryDx=0;entryDy=0;fontFamily=Helvetica;startArrow=diamond;startFill=1;endArrow=none;endFill=0;endSize=6;targetPerimeterSpacing=0;strokeWidth=1;exitX=0.214;exitY=1;exitDx=0;exitDy=0;exitPerimeter=0;" edge="1" parent="1" source="167" target="127">
                    <mxGeometry relative="1" as="geometry">
                        <mxPoint x="-80" y="720" as="sourcePoint"/>
                        <Array as="points">
                            <mxPoint x="-70" y="740"/>
                            <mxPoint x="-400" y="740"/>
                        </Array>
                    </mxGeometry>
                </mxCell>
                <mxCell id="180" style="edgeStyle=none;rounded=1;html=1;entryX=0.5;entryY=0;entryDx=0;entryDy=0;fontFamily=Helvetica;startArrow=diamond;startFill=1;endArrow=none;endFill=0;endSize=6;targetPerimeterSpacing=0;strokeWidth=1;exitX=0.786;exitY=1;exitDx=0;exitDy=0;exitPerimeter=0;" edge="1" parent="1" source="167" target="133">
                    <mxGeometry relative="1" as="geometry">
                        <mxPoint y="720" as="sourcePoint"/>
                        <Array as="points">
                            <mxPoint x="10" y="740"/>
                            <mxPoint x="350" y="740"/>
                        </Array>
                    </mxGeometry>
                </mxCell>
                <mxCell id="166" value="Trip" style="swimlane;fontStyle=0;childLayout=stackLayout;horizontal=1;startSize=26;fillColor=default;horizontalStack=0;resizeParent=1;resizeParentMax=0;resizeLast=0;collapsible=1;marginBottom=0;labelBackgroundColor=none;labelBorderColor=none;fontFamily=Helvetica;" vertex="1" parent="1">
                    <mxGeometry x="-100" y="648" width="140" height="52" as="geometry"/>
                </mxCell>
                <mxCell id="167" value="" style="text;strokeColor=none;fillColor=default;align=left;verticalAlign=top;spacingLeft=4;spacingRight=4;overflow=hidden;rotatable=0;points=[[0,0.5],[1,0.5]];portConstraint=eastwest;labelBackgroundColor=none;labelBorderColor=none;fontFamily=Helvetica;" vertex="1" parent="166">
                    <mxGeometry y="26" width="140" height="26" as="geometry"/>
                </mxCell>
                <mxCell id="172" value="Route" style="swimlane;fontStyle=0;childLayout=stackLayout;horizontal=1;startSize=26;fillColor=default;horizontalStack=0;resizeParent=1;resizeParentMax=0;resizeLast=0;collapsible=1;marginBottom=0;labelBackgroundColor=none;labelBorderColor=none;fontFamily=Helvetica;" vertex="1" parent="1">
                    <mxGeometry x="-100" y="780" width="140" height="104" as="geometry"/>
                </mxCell>
                <mxCell id="173" value="id" style="text;strokeColor=none;fillColor=default;align=left;verticalAlign=top;spacingLeft=4;spacingRight=4;overflow=hidden;rotatable=0;points=[[0,0.5],[1,0.5]];portConstraint=eastwest;labelBackgroundColor=none;labelBorderColor=none;fontFamily=Helvetica;" vertex="1" parent="172">
                    <mxGeometry y="26" width="140" height="26" as="geometry"/>
                </mxCell>
                <mxCell id="175" value="start[0,0]" style="text;strokeColor=none;fillColor=default;align=left;verticalAlign=top;spacingLeft=4;spacingRight=4;overflow=hidden;rotatable=0;points=[[0,0.5],[1,0.5]];portConstraint=eastwest;labelBackgroundColor=none;labelBorderColor=none;fontFamily=Helvetica;" vertex="1" parent="172">
                    <mxGeometry y="52" width="140" height="26" as="geometry"/>
                </mxCell>
                <mxCell id="176" value="end[0,0]" style="text;strokeColor=none;fillColor=default;align=left;verticalAlign=top;spacingLeft=4;spacingRight=4;overflow=hidden;rotatable=0;points=[[0,0.5],[1,0.5]];portConstraint=eastwest;labelBackgroundColor=none;labelBorderColor=none;fontFamily=Helvetica;" vertex="1" parent="172">
                    <mxGeometry y="78" width="140" height="26" as="geometry"/>
                </mxCell>
                <mxCell id="179" value="" style="group" vertex="1" connectable="0" parent="1">
                    <mxGeometry x="40" y="780" width="620" height="340" as="geometry"/>
                </mxCell>
                <mxCell id="144" style="edgeStyle=none;html=1;fontFamily=Helvetica;startArrow=none;startFill=0;endArrow=none;endFill=0;endSize=6;targetPerimeterSpacing=0;strokeWidth=1;" edge="1" parent="179" source="75">
                    <mxGeometry relative="1" as="geometry">
                        <mxPoint x="310" y="150" as="targetPoint"/>
                        <Array as="points">
                            <mxPoint x="70" y="150"/>
                        </Array>
                    </mxGeometry>
                </mxCell>
                <mxCell id="156" style="edgeStyle=none;html=1;fontFamily=Helvetica;startArrow=none;startFill=0;endArrow=none;endFill=0;endSize=6;targetPerimeterSpacing=0;strokeWidth=1;" edge="1" parent="179" source="75">
                    <mxGeometry relative="1" as="geometry">
                        <mxPoint x="150" y="240" as="targetPoint"/>
                        <Array as="points">
                            <mxPoint x="70" y="240"/>
                        </Array>
                    </mxGeometry>
                </mxCell>
                <mxCell id="75" value="UberX" style="swimlane;fontStyle=0;childLayout=stackLayout;horizontal=1;startSize=26;fillColor=default;horizontalStack=0;resizeParent=1;resizeParentMax=0;resizeLast=0;collapsible=1;marginBottom=0;labelBackgroundColor=none;labelBorderColor=none;fontFamily=Helvetica;" vertex="1" parent="179">
                    <mxGeometry y="170" width="140" height="52" as="geometry"/>
                </mxCell>
                <mxCell id="80" value="" style="text;strokeColor=none;fillColor=default;align=left;verticalAlign=top;spacingLeft=4;spacingRight=4;overflow=hidden;rotatable=0;points=[[0,0.5],[1,0.5]];portConstraint=eastwest;labelBackgroundColor=none;labelBorderColor=none;fontFamily=Helvetica;" vertex="1" parent="75">
                    <mxGeometry y="26" width="140" height="26" as="geometry"/>
                </mxCell>
                <mxCell id="145" style="edgeStyle=none;html=1;fontFamily=Helvetica;startArrow=none;startFill=0;endArrow=none;endFill=0;endSize=6;targetPerimeterSpacing=0;strokeWidth=1;" edge="1" parent="179" source="82">
                    <mxGeometry relative="1" as="geometry">
                        <mxPoint x="230" y="150" as="targetPoint"/>
                    </mxGeometry>
                </mxCell>
                <mxCell id="155" style="edgeStyle=none;html=1;fontFamily=Helvetica;startArrow=none;startFill=0;endArrow=none;endFill=0;endSize=6;targetPerimeterSpacing=0;strokeWidth=1;" edge="1" parent="179" source="82">
                    <mxGeometry relative="1" as="geometry">
                        <mxPoint x="150" y="240" as="targetPoint"/>
                        <Array as="points">
                            <mxPoint x="230" y="240"/>
                        </Array>
                    </mxGeometry>
                </mxCell>
                <mxCell id="82" value="UberPool" style="swimlane;fontStyle=0;childLayout=stackLayout;horizontal=1;startSize=26;fillColor=default;horizontalStack=0;resizeParent=1;resizeParentMax=0;resizeLast=0;collapsible=1;marginBottom=0;labelBackgroundColor=none;labelBorderColor=none;fontFamily=Helvetica;" vertex="1" parent="179">
                    <mxGeometry x="160" y="170" width="140" height="52" as="geometry"/>
                </mxCell>
                <mxCell id="87" value="" style="text;strokeColor=none;fillColor=default;align=left;verticalAlign=top;spacingLeft=4;spacingRight=4;overflow=hidden;rotatable=0;points=[[0,0.5],[1,0.5]];portConstraint=eastwest;labelBackgroundColor=none;labelBorderColor=none;fontFamily=Helvetica;" vertex="1" parent="82">
                    <mxGeometry y="26" width="140" height="26" as="geometry"/>
                </mxCell>
                <mxCell id="146" style="edgeStyle=none;html=1;fontFamily=Helvetica;startArrow=none;startFill=0;endArrow=none;endFill=0;endSize=6;targetPerimeterSpacing=0;strokeWidth=1;" edge="1" parent="179" source="89">
                    <mxGeometry relative="1" as="geometry">
                        <mxPoint x="310" y="150" as="targetPoint"/>
                        <Array as="points">
                            <mxPoint x="550" y="150"/>
                        </Array>
                    </mxGeometry>
                </mxCell>
                <mxCell id="159" style="edgeStyle=none;html=1;fontFamily=Helvetica;startArrow=none;startFill=0;endArrow=none;endFill=0;endSize=6;targetPerimeterSpacing=0;strokeWidth=1;" edge="1" parent="179" source="89">
                    <mxGeometry relative="1" as="geometry">
                        <mxPoint x="470" y="240" as="targetPoint"/>
                        <Array as="points">
                            <mxPoint x="550" y="240"/>
                        </Array>
                    </mxGeometry>
                </mxCell>
                <mxCell id="89" value="UberBlack" style="swimlane;fontStyle=0;childLayout=stackLayout;horizontal=1;startSize=26;fillColor=default;horizontalStack=0;resizeParent=1;resizeParentMax=0;resizeLast=0;collapsible=1;marginBottom=0;labelBackgroundColor=none;labelBorderColor=none;fontFamily=Helvetica;" vertex="1" parent="179">
                    <mxGeometry x="480" y="170" width="140" height="52" as="geometry"/>
                </mxCell>
                <mxCell id="94" value="" style="text;strokeColor=none;fillColor=default;align=left;verticalAlign=top;spacingLeft=4;spacingRight=4;overflow=hidden;rotatable=0;points=[[0,0.5],[1,0.5]];portConstraint=eastwest;labelBackgroundColor=none;labelBorderColor=none;fontFamily=Helvetica;" vertex="1" parent="89">
                    <mxGeometry y="26" width="140" height="26" as="geometry"/>
                </mxCell>
                <mxCell id="147" style="edgeStyle=none;html=1;fontFamily=Helvetica;startArrow=none;startFill=0;endArrow=none;endFill=0;endSize=6;targetPerimeterSpacing=0;strokeWidth=1;" edge="1" parent="179" source="96">
                    <mxGeometry relative="1" as="geometry">
                        <mxPoint x="390" y="150" as="targetPoint"/>
                    </mxGeometry>
                </mxCell>
                <mxCell id="158" style="edgeStyle=none;html=1;fontFamily=Helvetica;startArrow=none;startFill=0;endArrow=none;endFill=0;endSize=6;targetPerimeterSpacing=0;strokeWidth=1;" edge="1" parent="179" source="96">
                    <mxGeometry relative="1" as="geometry">
                        <mxPoint x="470" y="240" as="targetPoint"/>
                        <Array as="points">
                            <mxPoint x="390" y="240"/>
                        </Array>
                    </mxGeometry>
                </mxCell>
                <mxCell id="96" value="UberVan" style="swimlane;fontStyle=0;childLayout=stackLayout;horizontal=1;startSize=26;fillColor=default;horizontalStack=0;resizeParent=1;resizeParentMax=0;resizeLast=0;collapsible=1;marginBottom=0;labelBackgroundColor=none;labelBorderColor=none;fontFamily=Helvetica;" vertex="1" parent="179">
                    <mxGeometry x="320" y="170" width="140" height="52" as="geometry"/>
                </mxCell>
                <mxCell id="101" value="" style="text;strokeColor=none;fillColor=default;align=left;verticalAlign=top;spacingLeft=4;spacingRight=4;overflow=hidden;rotatable=0;points=[[0,0.5],[1,0.5]];portConstraint=eastwest;labelBackgroundColor=none;labelBorderColor=none;fontFamily=Helvetica;" vertex="1" parent="96">
                    <mxGeometry y="26" width="140" height="26" as="geometry"/>
                </mxCell>
                <mxCell id="143" style="edgeStyle=none;html=1;fontFamily=Helvetica;startArrow=block;startFill=0;endArrow=none;endFill=0;endSize=6;targetPerimeterSpacing=0;strokeWidth=1;" edge="1" parent="179" source="133">
                    <mxGeometry relative="1" as="geometry">
                        <mxPoint x="310" y="150" as="targetPoint"/>
                    </mxGeometry>
                </mxCell>
                <mxCell id="133" value="Car" style="swimlane;fontStyle=0;childLayout=stackLayout;horizontal=1;startSize=26;fillColor=default;horizontalStack=0;resizeParent=1;resizeParentMax=0;resizeLast=0;collapsible=1;marginBottom=0;labelBackgroundColor=none;labelBorderColor=none;fontFamily=Helvetica;" vertex="1" parent="179">
                    <mxGeometry x="240" width="140" height="130" as="geometry"/>
                </mxCell>
                <mxCell id="134" value="id" style="text;strokeColor=none;fillColor=default;align=left;verticalAlign=top;spacingLeft=4;spacingRight=4;overflow=hidden;rotatable=0;points=[[0,0.5],[1,0.5]];portConstraint=eastwest;labelBackgroundColor=none;labelBorderColor=none;fontFamily=Helvetica;" vertex="1" parent="133">
                    <mxGeometry y="26" width="140" height="26" as="geometry"/>
                </mxCell>
                <mxCell id="135" value="license: string" style="text;strokeColor=none;fillColor=default;align=left;verticalAlign=top;spacingLeft=4;spacingRight=4;overflow=hidden;rotatable=0;points=[[0,0.5],[1,0.5]];portConstraint=eastwest;labelBackgroundColor=none;labelBorderColor=none;fontFamily=Helvetica;" vertex="1" parent="133">
                    <mxGeometry y="52" width="140" height="26" as="geometry"/>
                </mxCell>
                <mxCell id="136" value="driver: Driver" style="text;strokeColor=none;fillColor=default;align=left;verticalAlign=top;spacingLeft=4;spacingRight=4;overflow=hidden;rotatable=0;points=[[0,0.5],[1,0.5]];portConstraint=eastwest;labelBackgroundColor=none;labelBorderColor=none;fontFamily=Helvetica;" vertex="1" parent="133">
                    <mxGeometry y="78" width="140" height="26" as="geometry"/>
                </mxCell>
                <mxCell id="137" value="passengers: integer" style="text;strokeColor=none;fillColor=default;align=left;verticalAlign=top;spacingLeft=4;spacingRight=4;overflow=hidden;rotatable=0;points=[[0,0.5],[1,0.5]];portConstraint=eastwest;labelBackgroundColor=none;labelBorderColor=none;fontFamily=Helvetica;" vertex="1" parent="133">
                    <mxGeometry y="104" width="140" height="26" as="geometry"/>
                </mxCell>
                <mxCell id="157" style="edgeStyle=none;html=1;fontFamily=Helvetica;startArrow=block;startFill=0;endArrow=none;endFill=0;endSize=6;targetPerimeterSpacing=0;strokeWidth=1;" edge="1" parent="179" source="140">
                    <mxGeometry relative="1" as="geometry">
                        <mxPoint x="470" y="240" as="targetPoint"/>
                    </mxGeometry>
                </mxCell>
                <mxCell id="140" value="PremiumCriteria" style="swimlane;fontStyle=0;childLayout=stackLayout;horizontal=1;startSize=26;fillColor=default;horizontalStack=0;resizeParent=1;resizeParentMax=0;resizeLast=0;collapsible=1;marginBottom=0;labelBackgroundColor=none;labelBorderColor=none;fontFamily=Helvetica;" vertex="1" parent="179">
                    <mxGeometry x="400" y="262" width="140" height="78" as="geometry"/>
                </mxCell>
                <mxCell id="141" value="typeCarAccepted[]" style="text;strokeColor=none;fillColor=default;align=left;verticalAlign=top;spacingLeft=4;spacingRight=4;overflow=hidden;rotatable=0;points=[[0,0.5],[1,0.5]];portConstraint=eastwest;labelBackgroundColor=none;labelBorderColor=none;fontFamily=Helvetica;" vertex="1" parent="140">
                    <mxGeometry y="26" width="140" height="26" as="geometry"/>
                </mxCell>
                <mxCell id="142" value="seatMaterial[]" style="text;strokeColor=none;fillColor=default;align=left;verticalAlign=top;spacingLeft=4;spacingRight=4;overflow=hidden;rotatable=0;points=[[0,0.5],[1,0.5]];portConstraint=eastwest;labelBackgroundColor=none;labelBorderColor=none;fontFamily=Helvetica;" vertex="1" parent="140">
                    <mxGeometry y="52" width="140" height="26" as="geometry"/>
                </mxCell>
                <mxCell id="154" style="edgeStyle=none;html=1;fontFamily=Helvetica;startArrow=block;startFill=0;endArrow=none;endFill=0;endSize=6;targetPerimeterSpacing=0;strokeWidth=1;" edge="1" parent="179" source="148">
                    <mxGeometry relative="1" as="geometry">
                        <mxPoint x="150" y="240" as="targetPoint"/>
                    </mxGeometry>
                </mxCell>
                <mxCell id="148" value="basicCriteria" style="swimlane;fontStyle=0;childLayout=stackLayout;horizontal=1;startSize=26;fillColor=default;horizontalStack=0;resizeParent=1;resizeParentMax=0;resizeLast=0;collapsible=1;marginBottom=0;labelBackgroundColor=none;labelBorderColor=none;fontFamily=Helvetica;" vertex="1" parent="179">
                    <mxGeometry x="80" y="262" width="140" height="78" as="geometry"/>
                </mxCell>
                <mxCell id="149" value="brand: string" style="text;strokeColor=none;fillColor=default;align=left;verticalAlign=top;spacingLeft=4;spacingRight=4;overflow=hidden;rotatable=0;points=[[0,0.5],[1,0.5]];portConstraint=eastwest;labelBackgroundColor=none;labelBorderColor=none;fontFamily=Helvetica;" vertex="1" parent="148">
                    <mxGeometry y="26" width="140" height="26" as="geometry"/>
                </mxCell>
                <mxCell id="150" value="mode: string" style="text;strokeColor=none;fillColor=default;align=left;verticalAlign=top;spacingLeft=4;spacingRight=4;overflow=hidden;rotatable=0;points=[[0,0.5],[1,0.5]];portConstraint=eastwest;labelBackgroundColor=none;labelBorderColor=none;fontFamily=Helvetica;" vertex="1" parent="148">
                    <mxGeometry y="52" width="140" height="26" as="geometry"/>
                </mxCell>
            </root>
        </mxGraphModel>
    </diagram>
</mxfile>